<?xml version="1.0" encoding="UTF-8" standalone="no"?>
<!-- Created with Inkscape (http://www.inkscape.org/) -->

<svg
   width="3840"
   height="2160"
   viewBox="0 0 3840 2160"
   version="1.1"
   id="svg1"
   sodipodi:docname="tutorial.svg"
   inkscape:version="1.4.2 (f4327f4, 2025-05-13)"
   xmlns:inkscape="http://www.inkscape.org/namespaces/inkscape"
   xmlns:sodipodi="http://sodipodi.sourceforge.net/DTD/sodipodi-0.dtd"
   xmlns="http://www.w3.org/2000/svg"
   xmlns:svg="http://www.w3.org/2000/svg">
  <sodipodi:namedview
     id="namedview1"
     pagecolor="#ffffff"
     bordercolor="#000000"
     borderopacity="0.25"
     inkscape:showpageshadow="2"
     inkscape:pageopacity="0.0"
     inkscape:pagecheckerboard="0"
     inkscape:deskcolor="#d1d1d1"
     inkscape:zoom="0.44212963"
     inkscape:cx="1129.7592"
     inkscape:cy="1134.2827"
     inkscape:window-width="1920"
     inkscape:window-height="1177"
     inkscape:window-x="-8"
     inkscape:window-y="-8"
     inkscape:window-maximized="1"
     inkscape:current-layer="svg1" />
  <defs
     id="defs1">
    <rect
       x="1044.8355"
       y="494.79286"
       width="6.5481271"
       height="16.370318"
       id="rect2" />
  </defs>
  <g
     id="layer1"
     transform="translate(167.37173,-38.450262)">
    <text
       xml:space="preserve"
       id="text2"
       style="font-size:12px;font-family:'MS UI Gothic';white-space:pre;shape-inside:url(#rect2);fill:none;stroke:#000000;stroke-opacity:1" />
    <path
       d="m 684.06512,516.77898 h 20.42994 v 4.08599 h -8.17198 v 32.68789 h -4.08598 v -32.68789 h -8.17198 v -4.08599 z m 24.51592,12.25796 h 4.08599 v 4.08599 h 4.08598 v 4.08598 h -4.08598 v 16.34395 h -4.08599 v -24.51592 z m 8.17197,0 h 8.17198 v 4.08599 h -8.17198 v -4.08599 z m 8.17198,4.08599 h 4.08598 v 4.08598 h -4.08598 v -4.08598 z m 8.17197,-4.08599 h 4.08598 v 16.34394 h -4.08598 v -16.34394 z m 16.34394,0 h 4.08599 v 28.6019 h -4.08599 v -8.17197 h -12.25796 v -4.08599 h 12.25796 v -16.34394 z m -12.25796,28.6019 h 12.25796 v 4.08599 h -12.25796 v -4.08599 z m 36.77388,-40.85986 h 12.25796 v 4.08599 h -12.25796 v -4.08599 z m -4.08599,4.08599 h 4.08599 v 12.25796 h -4.08599 v -12.25796 z m 16.34395,0 h 4.08599 v 4.08598 h -4.08599 v -4.08598 z m -12.25796,12.25796 h 12.25796 v 4.08598 h -12.25796 v -4.08598 z m 12.25796,4.08598 h 4.08599 v 12.25796 h -4.08599 v -12.25796 z m -16.34395,8.17197 h 4.08599 v 4.08599 h -4.08599 v -4.08599 z m 4.08599,4.08599 h 12.25796 v 4.08599 h -12.25796 v -4.08599 z m 49.03183,-24.51592 h 4.08599 v 4.08599 h 8.17197 v 4.08599 h -8.17197 v 16.34394 h -4.08599 v -16.34394 h -4.08599 v -4.08599 h 4.08599 v -4.08599 z m 4.08599,24.51592 h 8.17197 v 4.08599 h -8.17197 v -4.08599 z m 16.34394,-20.42993 h 12.25796 v 4.08599 h -12.25796 v -4.08599 z m -4.08598,4.08599 h 4.08598 v 16.34394 h -4.08598 v -16.34394 z m 16.34394,0 h 4.08599 v 16.34394 h -4.08599 v -16.34394 z m -12.25796,16.34394 h 12.25796 v 4.08599 h -12.25796 v -4.08599 z m 36.77388,-32.68789 h 12.25796 v 4.08599 h -12.25796 v -4.08599 z m -4.08598,4.08599 h 4.08598 v 12.25796 h -4.08598 v -12.25796 z m 16.34394,0 h 4.08599 v 4.08598 h -4.08599 v -4.08598 z m -12.25796,12.25796 h 12.25796 v 4.08598 h -12.25796 v -4.08598 z m 12.25796,4.08598 h 4.08599 v 12.25796 h -4.08599 v -12.25796 z m -16.34394,8.17197 h 4.08598 v 4.08599 h -4.08598 v -4.08599 z m 4.08598,4.08599 h 12.25796 v 4.08599 h -12.25796 v -4.08599 z m 20.42993,-32.68789 h 8.17197 v 36.77388 h -4.08598 v -32.68789 h -4.08599 v -4.08599 z m 12.25797,4.08599 h 4.08598 v 4.08598 h -4.08598 v -4.08598 z m 0,8.17197 h 4.08598 v 24.51592 h -4.08598 v -24.51592 z m 24.51591,-12.25796 h 4.08598 v 36.77388 h -16.34394 v -4.08599 h 12.25796 v -16.34394 h -12.25796 v -4.08599 h 12.25796 v -12.25796 z m -16.34395,16.34395 h 4.08599 v 16.34394 h -4.08599 v -16.34394 z m 28.6019,-4.08599 h 12.25796 v 4.08599 h -12.25796 v -4.08599 z m -4.08598,4.08599 h 4.08598 v 8.17197 h 12.25796 v -8.17197 h 4.08599 v 12.25795 h -16.34395 v 4.08599 h -4.08598 v -16.34394 z m 4.08598,16.34394 h 16.34395 v 4.08599 h -16.34395 v -4.08599 z m 36.77387,-4.08599 h 8.17197 v 8.17198 h -8.17197 v -8.17198 z m 16.34401,0 h 8.1719 v 8.17198 h -8.1719 v -8.17198 z"
       id="text4"
       style="font-size:53.3px;line-height:0;font-family:'Power Clear';fill:none;stroke-width:4;stroke:#000000;stroke-opacity:1"
       aria-label="       Try S  to Slide ..     " />
    <path
       style="fill:none;fill-opacity:0.984252;stroke:#000000;stroke-width:5;stroke-dasharray:none;stroke-opacity:1"
       d="m 1009.3891,549.83923 173.3158,100.06395"
       id="path5" />
    <path
       style="fill:none;fill-opacity:0.984252;stroke:#000000;stroke-width:5;stroke-dasharray:none;stroke-opacity:1"
       d="m 1181.2862,649.67846 98.6816,3.18328"
       id="path6" />
    <path
       style="fill:none;fill-opacity:0.984252;stroke:#000000;stroke-width:5;stroke-dasharray:none;stroke-opacity:1"
       d="m 1278.5209,654.30868 69.4534,-38.48874"
       id="path7" />
    <path
       style="fill:none;fill-opacity:0.984252;stroke:#000000;stroke-width:5;stroke-dasharray:none;stroke-opacity:1"
       d="m 1470.0545,333.13597 157.9736,29.46657"
       id="path8" />
    <path
       style="fill:none;fill-opacity:0.984252;stroke:#000000;stroke-width:5;stroke-dasharray:none;stroke-opacity:1"
       d="m 1626.3911,362.60254 48.2924,96.58487"
       id="path9" />
    <path
       style="fill:none;fill-opacity:0.984252;stroke:#000000;stroke-width:5;stroke-dasharray:none;stroke-opacity:1"
       d="m 1674.6835,458.3689 1.637,189.07717"
       id="path10" />
    <path
       style="fill:none;fill-opacity:0.984252;stroke:#000000;stroke-width:5;stroke-dasharray:none;stroke-opacity:1"
       d="M 1623.4727,682.9582 1011.6856,920.01186"
       id="path11" />
    <path
       style="fill:none;fill-opacity:0.984252;stroke:#000000;stroke-width:5;stroke-dasharray:none;stroke-opacity:1"
       d="m 1616.5273,819.54984 104.1801,-6.36656"
       id="path12" />
    <path
       style="fill:none;fill-opacity:0.984252;stroke:#000000;stroke-width:5;stroke-dasharray:none;stroke-opacity:1"
       d="m 1534.3408,860.06431 c -142.9582,52.66881 -142.9582,52.66881 -142.9582,52.66881"
       id="path13" />
    <path
       style="fill:none;fill-opacity:0.984252;stroke:#000000;stroke-width:5;stroke-dasharray:none;stroke-opacity:1"
       d="m 1307.4598,946.88103 -157.4276,34.72669"
       id="path14" />
    <path
       style="fill:none;fill-opacity:0.984252;stroke:#000000;stroke-width:5;stroke-dasharray:none;stroke-opacity:1"
       d="m 1070.7396,1066.1093 -48.0386,0.5788"
       id="path15" />
    <path
       style="fill:none;fill-opacity:0.984252;stroke:#000000;stroke-width:5;stroke-dasharray:none;stroke-opacity:1"
       d="m 952.66881,922.57235 -270.86817,2.31511"
       id="path16" />
    <path
       style="fill:none;fill-opacity:0.984252;stroke:#000000;stroke-width:5;stroke-dasharray:none;stroke-opacity:1"
       d="M 659.80707,974.66238 67.138264,1034.8553"
       id="path17" />
    <path
       style="fill:none;fill-opacity:0.984252;stroke:#000000;stroke-width:5;stroke-dasharray:none;stroke-opacity:1"
       d="M 223.40836,876.2701 157.42765,856.59164"
       id="path18" />
    <path
       style="fill:none;fill-opacity:0.984252;stroke:#000000;stroke-width:5;stroke-dasharray:none;stroke-opacity:1"
       d="m 331.06109,919.09968 56.72026,-16.20579"
       id="path19" />
    <path
       style="fill:none;fill-opacity:0.984252;stroke:#000000;stroke-width:5;stroke-dasharray:none;stroke-opacity:1"
       d="m 589.19614,873.95498 -75.24116,-10.418"
       id="path20" />
    <path
       style="fill:none;fill-opacity:0.984252;stroke:#000000;stroke-width:5;stroke-dasharray:none;stroke-opacity:1"
       d="m 425.98071,768.61736 65.98071,-39.35691"
       id="path21" />
    <path
       style="fill:none;fill-opacity:0.984252;stroke:#000000;stroke-width:5;stroke-dasharray:none;stroke-opacity:1"
       d="m 153.95498,662.12219 75.24116,24.30868"
       id="path22" />
    <path
       style="fill:none;fill-opacity:0.984252;stroke:#000000;stroke-width:5;stroke-dasharray:none;stroke-opacity:1"
       d="M 103.02251,459.54984 H 702.05788"
       id="path23" />
    <path
       style="fill:none;fill-opacity:0.984252;stroke:#000000;stroke-width:5;stroke-dasharray:none;stroke-opacity:1"
       d="M 16.370318,1437.3139 V 157.15505"
       id="path24" />
    <path
       style="fill:none;fill-opacity:0.984252;stroke:#000000;stroke-width:5;stroke-dasharray:none;stroke-opacity:1"
       d="M 16.370318,160.42911 H 1903.868"
       id="path25" />
    <path
       style="fill:none;fill-opacity:0.984252;stroke:#000000;stroke-width:5;stroke-dasharray:none;stroke-opacity:1"
       d="M 1902.1543,161.18971 V 1522.4396"
       id="path26" />
    <path
       style="fill:none;fill-opacity:0.984252;stroke:#000000;stroke-width:5;stroke-dasharray:none;stroke-opacity:1"
       d="m 50.932476,906.94534 v 52.09003"
       id="path27" />
    <path
       style="fill:none;fill-opacity:0.984252;stroke:#000000;stroke-width:5;stroke-dasharray:none;stroke-opacity:1"
       d="M 50.932476,956.72026 65.401929,937.62058"
       id="path28" />
    <path
       style="fill:none;fill-opacity:0.984252;stroke:#000000;stroke-width:5;stroke-dasharray:none;stroke-opacity:1"
       d="M 50.932476,956.72026 42.250804,945.1447"
       id="path29" />
    <path
       style="fill:none;fill-opacity:0.984252;stroke:#000000;stroke-width:5;stroke-dasharray:none;stroke-opacity:1"
       d="M 50.952614,957.66359 40.618851,942.82799"
       id="path30" />
    <path
       style="fill:none;fill-opacity:0.984252;stroke:#000000;stroke-width:5;stroke-dasharray:none;stroke-opacity:1"
       d="M 50.952614,957.25433 37.140159,937.50764"
       id="path31" />
    <path
       style="fill:none;fill-rule:evenodd;stroke:#000000;stroke-width:5;stroke-dasharray:none;stroke-opacity:1"
       d="m 958.48214,1684.5057 c 74.88986,1.3632 105.04306,90.812 87.58116,152.244 -31.2353,109.8874 -162.40719,148.6467 -261.10664,109.681 -144.8454,-57.1837 -193.29061,-234.8825 -131.7809,-369.9692 81.98278,-180.0494 307.65834,-238.3627 478.83184,-153.8808 215.4044,106.3117 283.653,380.5745 175.9807,587.6944 -130.4056,250.8501 -453.56909,329.0693 -696.55711,198.0806 C 325.07822,2053.99 236.86671,1681.7432 391.25076,1402.936"
       transform="rotate(-29.30914,262.89002,2135.8355)"
       id="path32" />
  </g>
</svg>
